<svg xmlns="http://www.w3.org/2000/svg" viewBox="0 0 1001 1001" width="32" height="32">
  <title>Huawei Cloud Identity and Access Management</title>
  <path fill="#6B38AB" transform="translate(0 1001) scale(1 -1)" d="M399.6075416666663 416.6593055625001C390.9113541666668 419.2243680625 379.3372916666667 422.6235972291668 375.1664583333336 425.1469513958331L375.1664583333336 435.7617222291667C397.3552916666661 454.7181597291665 417.0833333333334 481.9537013958335 417.0833333333334 511.2746597291669L417.0833333333334 582.2205347291666C417.0833333333334 636.7958888958331 364.3431249791668 667.0622291666666 310.7687708124998 667.0622291666666C257.1944166458328 667.0622291666666 208.5416666666667 636.7958888958331 208.5416666666667 582.2205347291666L208.5416666666667 511.2746597291669C208.5416666666667 481.9537013958335 228.2697083333339 454.6973055624998 250.4585416666665 435.7617222291667L250.4585416666665 425.1469513958331C246.2668541666673 422.6027430625001 234.6927916666671 419.2035138958331 226.0174583333338 416.6593055625001C194.1314375000006 407.2957847291665 145.9791666666667 395.9997708333334 145.9791666666667 354.5208333333333L145.9791666666667 326.1244027708331C145.9791666666667 320.4729236041667 149.0864375 312.8125 154.6753541666661 312.8125L467.4878541666661 312.8125C473.0767708333334 312.8125 479.6458333333334 320.4520694374999 479.6458333333334 326.1244027708331L479.6458333333334 354.5208333333333C479.6458333333334 395.9789166666666 431.4727083333333 407.2749305624998 399.6075416666663 416.6593055625001zM165.1024374999995 333.6666666666667L165.1024374999995 354.5208333333333C165.1024374999995 380.4840414375001 204.5612735833329 388.9561509166665 232.113277229167 397.0826651458335C254.7333955833335 403.7505972500001 271.0897981458329 408.5848224791667 271.0897981458329 422.7958317916664L271.0897981458329 440.9242337500002C271.0897981458329 444.1331686458336 269.6123012916672 447.2170828125 267.094348354167 449.1132687708332C247.5540567499999 464.1994440416664 229.2472265416661 486.9328839374997 229.2472265416661 511.4166557499997L229.2472265416661 582.3049732500001C229.2472265416661 625.5005840416666 268.733923791667 646.4791666666666 311.0816041666661 646.4791666666666C353.4292845416665 646.4791666666666 397.0034401666666 625.5005840416666 397.0034401666666 582.3049732500001L397.0034401666666 511.4166557499997C397.0034401666666 486.9120506250001 378.6966099583328 464.1994440416664 359.1355267500006 449.1132687708332C356.6175529583338 447.2170828125 355.1608685624999 444.1540228124998 355.1608685624999 440.9242337500002L355.1608685624999 422.7958317916664C355.1608685624999 408.5848224791667 371.5172711250005 403.7505972500001 394.1373894791669 397.0826651458335C421.6893931249998 388.9561509166665 458.7916666666667 380.5048747500003 458.7916666666667 354.5208333333333L458.7916666666667 333.6666666666667L165.1024374999995 333.6666666666667zM896.2286666666668 834.1666666666666L104.7713333333334 834.1666666666666C70.0074375000006 834.1666666666666 41.7083333333333 799.2915555625001 41.7083333333333 764.9864513958332L41.7083333333333 222.0899305624998C41.7083333333333 187.7848263958335 67.7760416666667 166.8333333333333 102.5399374999994 166.8333333333333L896.2286666666668 166.8333333333333C931.0134166666668 166.8333333333333 959.2916666666669 187.7848263958335 959.2916666666669 222.0899305624998L959.2916666666669 771.6041666666666C959.2916666666669 805.9092708333333 931.0134166666668 834.1666666666666 896.2286666666668 834.1666666666666zM917.5833333333334 229.3958333333333C917.5833333333334 218.0928749999999 907.9904166666672 208.5416666666666 896.2286666666668 208.5416666666666L102.5399374999994 208.5416666666666C90.7573333333328 208.5416666666666 81.6857708333328 218.0928749999999 81.6857708333328 229.3958333333333L81.6857708333328 771.6041666666666C81.6857708333328 782.907125 90.7573333333328 792.4583333333333 102.5399374999994 792.4583333333333L896.2286666666668 792.4583333333333C907.9904166666672 792.4583333333333 917.5833333333334 782.9279791666668 917.5833333333334 771.6041666666666L917.5833333333334 229.3958333333333zM832.4357708333329 625.625L519.6232708333328 625.625C519.6232708333328 625.625 519.6232708333328 604.7708333333333 519.6232708333328 604.7708333333333L832.4357708333329 604.7708333333333C832.4357708333329 604.7708333333333 832.4357708333329 625.625 832.4357708333329 625.625zM832.4357708333329 563.0625L519.6232708333328 563.0625C519.6232708333328 563.0625 519.6232708333328 542.2083333333333 519.6232708333328 542.2083333333333L832.4357708333329 542.2083333333333C832.4357708333329 542.2083333333333 832.4357708333329 563.0625 832.4357708333329 563.0625zM832.4357708333329 500.5L519.6232708333328 500.5C519.6232708333328 500.5 519.6232708333328 479.6458333333333 519.6232708333328 479.6458333333333L832.4357708333329 479.6458333333333C832.4357708333329 479.6458333333333 832.4357708333329 500.5 832.4357708333329 500.5z"/>
</svg>
